HIERARCHY
ROOT Hips
{
	OFFSET 0.000000 0.000000 0.000000
	CHANNELS 6 Xposition Yposition Zposition Zrotation Yrotation Xrotation 
	JOINT LHipJoint
	{
		OFFSET 0.000000 0.000000 0.000000
		CHANNELS 3 Zrotation Yrotation Xrotation
		JOINT LeftUpLeg
		{
			OFFSET 1.363060 -1.794630 0.839290
			CHANNELS 3 Zrotation Yrotation Xrotation
			JOINT LeftLeg
			{
				OFFSET 2.448110 -6.726130 0.000000
				CHANNELS 3 Zrotation Yrotation Xrotation
				JOINT LeftFoot
				{
					OFFSET 2.562200 -7.039590 0.000000
					CHANNELS 3 Zrotation Yrotation Xrotation
					JOINT LeftToeBase
					{
						OFFSET 0.157640 -0.433110 2.322550
						CHANNELS 3 Zrotation Yrotation Xrotation
						End Site
						{
							OFFSET 0.000000 0.000000 0.000000
						}
					}
				}
			}
		}
	}
	JOINT RHipJoint
	{
		OFFSET 0.000000 0.000000 0.000000
		CHANNELS 3 Zrotation Yrotation Xrotation
		JOINT RightUpLeg
		{
			OFFSET -1.305520 -1.794630 0.839290
			CHANNELS 3 Zrotation Yrotation Xrotation
			JOINT RightLeg
			{
				OFFSET -2.542530 -6.985550 0.000000
				CHANNELS 3 Zrotation Yrotation Xrotation
				JOINT RightFoot
				{
					OFFSET -2.568260 -7.056230 0.000000
					CHANNELS 3 Zrotation Yrotation Xrotation
					JOINT RightToeBase
					{
						OFFSET -0.164730 -0.452590 2.363150
						CHANNELS 3 Zrotation Yrotation Xrotation
						End Site
						{
							OFFSET 0.000000 0.000000 0.000000
						}
					}
				}
			}
		}
	}
	JOINT LowerBack
	{
		OFFSET 0.000000 0.000000 0.000000
		CHANNELS 3 Zrotation Yrotation Xrotation
		JOINT Spine
		{
			OFFSET 0.028270 2.035590 -0.193380
			CHANNELS 3 Zrotation Yrotation Xrotation
			JOINT Spine1
			{
				OFFSET 0.056720 2.048850 -0.042750
				CHANNELS 3 Zrotation Yrotation Xrotation
				JOINT Neck
				{
					OFFSET 0.000000 0.000000 0.000000
					CHANNELS 3 Zrotation Yrotation Xrotation
					JOINT Neck1
					{
						OFFSET -0.054170 1.746240 0.172020
						CHANNELS 3 Zrotation Yrotation Xrotation
						JOINT Head
						{
							OFFSET 0.104070 1.761360 -0.123970
							CHANNELS 3 Zrotation Yrotation Xrotation
							End Site
							{
								OFFSET 0.000000 0.000000 0.000000
							}
						}
					}
				}
				JOINT LeftShoulder
				{
					OFFSET 0.000000 0.000000 0.000000
					CHANNELS 3 Zrotation Yrotation Xrotation
					JOINT LeftArm
					{
						OFFSET 3.362410 1.200890 -0.311210
						CHANNELS 3 Zrotation Yrotation Xrotation
						JOINT LeftForeArm
						{
							OFFSET 4.983000 -0.000000 -0.000000
							CHANNELS 3 Zrotation Yrotation Xrotation
							JOINT LeftHand
							{
								OFFSET 3.483560 -0.000000 -0.000000
								CHANNELS 3 Zrotation Yrotation Xrotation
								JOINT LeftFingerBase
								{
									OFFSET 0.000000 0.000000 0.000000
									CHANNELS 3 Zrotation Yrotation Xrotation
									JOINT LeftHandIndex1
									{
										OFFSET 0.715260 -0.000000 -0.000000
										CHANNELS 3 Zrotation Yrotation Xrotation
										End Site
										{
											OFFSET 0.000000 0.000000 0.000000
										}
									}
								}
								JOINT LThumb
								{
									OFFSET 0.000000 0.000000 0.000000
									CHANNELS 3 Zrotation Yrotation Xrotation
									End Site
									{
										OFFSET 0.000000 0.000000 0.000000
									}
								}
							}
						}
					}
				}
				JOINT RightShoulder
				{
					OFFSET 0.000000 0.000000 0.000000
					CHANNELS 3 Zrotation Yrotation Xrotation
					JOINT RightArm
					{
						OFFSET -3.136600 1.374050 -0.404650
						CHANNELS 3 Zrotation Yrotation Xrotation
						JOINT RightForeArm
						{
							OFFSET -5.241900 -0.000000 -0.000000
							CHANNELS 3 Zrotation Yrotation Xrotation
							JOINT RightHand
							{
								OFFSET -3.444170 -0.000000 -0.000000
								CHANNELS 3 Zrotation Yrotation Xrotation
								JOINT RightFingerBase
								{
									OFFSET 0.000000 0.000000 0.000000
									CHANNELS 3 Zrotation Yrotation Xrotation
									JOINT RightHandIndex1
									{
										OFFSET -0.622530 -0.000000 -0.000000
										CHANNELS 3 Zrotation Yrotation Xrotation
										End Site
										{
											OFFSET 0.000000 0.000000 0.000000
										}
									}
								}
								JOINT RThumb
								{
									OFFSET 0.000000 0.000000 0.000000
									CHANNELS 3 Zrotation Yrotation Xrotation
									End Site
									{
										OFFSET 0.000000 0.000000 0.000000
									}
								}
							}
						}
					}
				}
			}
		}
	}
}
MOTION
Frames: 7
Frame Time: 0.008333
-11.201408 17.569034 -16.316497 174.959357 87.499952 172.026016 2.636542 -0.912727 -0.075006 -15.965689 -13.066938 -3.658635 -1.271802 9.336184 23.349534 -0.187484 5.771409 -13.250322 3.056300 -10.785700 -31.560400 -10.939418 0.202340 -6.100622 18.921973 -11.760287 11.094452 1.483815 -0.504718 3.791346 0.185956 -5.158468 -6.946495 -0.652100 5.165200 -14.380300 1.885889 0.445216 12.848974 0.213249 0.787487 -0.084271 -0.520841 0.362322 -2.643817 -5.435431 -4.401063 -19.651677 2.441723 -4.189998 21.936895 0.934400 -2.002300 16.007800 5.814473 -7.761781 0.508579 -89.859947 -2.164546 24.025714 20.904828 -32.405864 -7.187884 -0.720469 1.905048 -16.504579 36.250530 7.730754 3.818000 -7.125000 0.000000 0.000000 8.222100 36.308600 -1.771900 -7.420332 7.728320 1.860483 87.281263 -1.488438 13.546582 -18.335153 30.372026 -5.116910 -0.035051 -2.066109 21.708940 -18.386680 -14.978154 4.426500 7.125000 0.000000 0.000000 7.446800 -43.464400 0.283900 
-11.154508 17.566786 -16.273211 174.843654 87.221030 171.841845 2.645677 -0.898218 -0.057517 -15.966907 -13.355922 -3.307269 -1.293634 9.279454 23.235007 -0.194735 5.872785 -13.379964 3.064200 -10.798200 -31.602400 -10.936371 0.208447 -6.103487 18.934229 -12.113971 11.295722 1.481085 -0.513016 3.809472 0.173907 -5.049993 -7.064297 -0.594300 4.935200 -13.723800 2.041846 0.427420 12.609149 0.249362 0.770340 -0.171141 -0.430860 0.348368 -2.663085 -5.599769 -4.361883 -19.655926 2.503919 -4.098017 21.779917 1.012800 -1.986100 15.917100 5.917718 -7.778303 0.446788 -90.966211 -2.645582 21.903508 18.724884 -30.309523 -6.302309 -0.600245 1.947908 -14.682254 36.075260 7.315599 3.488600 -7.125000 0.000000 0.000000 7.991700 35.795200 -1.822400 -7.441421 7.735288 1.883356 86.951378 -1.663924 14.113804 -17.975783 30.004189 -4.961166 -0.034046 -2.052000 21.845095 -18.119141 -14.878360 4.333800 7.125000 0.000000 0.000000 7.671800 -43.352900 0.313800 
-11.109268 17.568057 -16.227679 175.025736 86.926775 172.031187 2.643164 -0.895523 -0.043974 -15.917330 -13.676027 -3.010013 -1.325204 9.205198 23.066890 -0.216298 6.049783 -13.474313 3.102500 -10.859100 -31.806200 -10.948228 0.202512 -6.095030 19.018394 -12.461920 11.430722 1.482294 -0.526767 3.824104 0.162231 -4.980127 -7.229693 -0.502500 4.544500 -12.613800 2.106401 0.416772 12.321541 0.307315 0.750437 -0.284550 -0.252917 0.332975 -2.701346 -5.708011 -4.324435 -19.656249 2.565818 -4.033831 21.597775 1.076900 -1.973400 15.810000 6.028002 -7.797721 0.381562 -92.100963 -3.090738 19.343688 16.513458 -28.095562 -5.487615 -0.459826 1.979263 -12.615721 36.043905 6.920780 3.200200 -7.125000 0.000000 0.000000 7.878200 35.325000 -1.887100 -7.462466 7.742555 1.910267 86.554031 -1.906142 14.781052 -17.585370 29.600092 -4.795876 -0.033350 -2.036390 21.825191 -17.907558 -14.762666 4.248600 7.125000 0.000000 0.000000 7.848100 -43.229400 0.345200 
-11.065006 17.571086 -16.180680 175.383016 86.600447 172.438287 2.635947 -0.901273 -0.032718 -15.841044 -14.047528 -2.753510 -1.357883 9.133440 22.900808 -0.244598 6.267168 -13.566658 3.167400 -10.961200 -32.149100 -10.965914 0.191076 -6.078212 19.138333 -12.833422 11.532242 1.486175 -0.544056 3.838065 0.148733 -4.933820 -7.472460 -0.417600 4.148100 -11.493700 2.103990 0.391238 12.012152 0.372372 0.702640 -0.417350 -0.028885 0.304760 -2.757964 -5.743424 -4.278902 -19.662904 2.626542 -3.987370 21.401983 1.124600 -1.958100 15.694800 6.134242 -7.818615 0.319891 -93.140205 -3.435912 16.550308 14.383758 -25.877067 -4.780318 -0.313223 1.992868 -10.568821 36.195568 6.635756 3.018000 -7.125000 0.000000 0.000000 7.922700 35.006800 -1.959900 -7.480597 7.750300 1.940064 86.100363 -2.213124 15.645774 -17.182978 29.186787 -4.634775 -0.031766 -2.025459 21.516130 -17.849055 -14.755910 4.231900 7.125000 0.000000 0.000000 7.912800 -43.224100 0.349100 
-11.020939 17.573919 -16.134464 175.857711 86.231944 172.982864 2.627256 -0.912461 -0.021779 -15.764233 -14.507023 -2.487543 -1.394076 9.061093 22.729533 -0.277278 6.521961 -13.686838 3.238000 -11.070700 -32.518700 -10.983948 0.177082 -6.055439 19.261488 -13.241750 11.617464 1.489911 -0.563224 3.852922 0.131037 -4.870538 -7.783657 -0.358200 3.844700 -10.640200 2.075275 0.333284 11.695793 0.433929 0.609087 -0.559621 0.196553 0.254614 -2.822890 -5.714699 -4.220758 -19.688273 2.689295 -3.947414 21.201859 1.160600 -1.936800 15.579100 6.227562 -7.840383 0.267864 -93.999997 -3.633350 13.773165 12.424418 -23.758121 -4.193274 -0.175783 1.989212 -8.796321 36.506057 6.516113 2.976100 -7.125000 0.000000 0.000000 8.112100 34.903700 -2.028000 -7.494473 7.757963 1.970175 85.613447 -2.552903 16.685952 -16.778425 28.776440 -4.485915 -0.030181 -2.022120 20.900975 -17.997986 -14.909331 4.311900 7.125000 0.000000 0.000000 7.827500 -43.391600 0.312700 
-10.976774 17.575287 -16.091863 176.401132 85.837405 173.595686 2.619042 -0.927420 -0.010145 -15.710606 -15.092461 -2.176524 -1.432588 8.995663 22.573300 -0.311208 6.819134 -13.894547 3.285300 -11.143200 -32.764200 -10.999580 0.162792 -6.030112 19.368152 -13.671816 11.696615 1.491104 -0.582544 3.868818 0.108196 -4.756144 -8.121473 -0.322500 3.650400 -10.095100 2.058729 0.243464 11.383571 0.487712 0.475390 -0.699747 0.390828 0.184251 -2.883592 -5.648495 -4.154174 -19.739119 2.758433 -3.909125 20.998599 1.192200 -1.910800 15.465600 6.303958 -7.862833 0.228910 -94.655597 -3.664450 11.216171 10.687069 -21.815130 -3.719444 -0.057715 1.973875 -7.423217 36.890431 6.553370 3.060000 -7.125000 0.000000 0.000000 8.380000 34.999900 -2.076400 -7.505210 7.765498 1.997504 85.135222 -2.874177 17.725128 -16.374150 28.367094 -4.350157 -0.030816 -2.024495 20.115547 -18.321071 -15.176380 4.469200 7.125000 0.000000 0.000000 7.610900 -43.684500 0.248600 
-10.932805 17.574896 -16.054733 176.955118 85.454556 174.207664 2.611885 -0.944152 0.002916 -15.696472 -15.813085 -1.800506 -1.473294 8.941934 22.444597 -0.345621 7.173186 -14.238187 3.287600 -11.146700 -32.776200 -11.012462 0.149833 -6.006315 19.453241 -14.087396 11.775851 1.489018 -0.600441 3.884784 0.081714 -4.583914 -8.434519 -0.298400 3.512400 -9.708800 2.074963 0.140309 11.084914 0.534500 0.328957 -0.828332 0.539604 0.106805 -2.931871 -5.577093 -4.090636 -19.810805 2.838407 -3.877806 20.783226 1.226300 -1.886400 15.349100 6.364582 -7.885808 0.203544 -95.132740 -3.541742 8.959332 9.188428 -20.088494 -3.341396 0.039357 1.952996 -6.375844 37.232124 6.680223 3.209600 -7.125000 0.000000 0.000000 8.628200 35.207700 -2.094900 -7.516731 7.773714 2.019066 84.728073 -3.121318 18.460206 -15.964580 27.945457 -4.222484 -0.036580 -2.027283 19.434020 -18.692811 -15.444653 4.641600 7.125000 0.000000 0.000000 7.350700 -43.984100 0.185400 
